<svg xmlns="http://www.w3.org/2000/svg" width="28" height="28" viewBox="0 0 28 28" fill="none">
    <path d="M16.3335 13.9997H25.6668M16.3335 8.16634H25.6668M18.6668 19.833H25.6668M11.6668 9.33301C11.6668 11.266 10.0998 12.833 8.16683 12.833C6.23383 12.833 4.66683 11.266 4.66683 9.33301C4.66683 7.40001 6.23383 5.83301 8.16683 5.83301C10.0998 5.83301 11.6668 7.40001 11.6668 9.33301ZM14.0002 18.6663C14.0002 20.5993 11.3885 22.1663 8.16683 22.1663C4.94517 22.1663 2.3335 20.5993 2.3335 18.6663C2.3335 16.7333 4.94517 15.1663 8.16683 15.1663C11.3885 15.1663 14.0002 16.7333 14.0002 18.6663Z" stroke="#17191C" stroke-width="1.5" stroke-linecap="round" stroke-linejoin="round"/>
  </svg>